# texicosahedron.obj

g icosahedron

v 0.000000 -0.525731 0.850651
v 0.850651 0.000000 0.525731
v 0.850651 0.000000 -0.525731
v -0.850651 0.000000 -0.525731
v -0.850651 0.000000 0.525731
v -0.525731 0.850651 0.000000
v 0.525731 0.850651 0.000000
v 0.525731 -0.850651 0.000000
v -0.525731 -0.850651 0.000000
v 0.000000 -0.525731 -0.850651
v 0.000000 0.525731 -0.850651
v 0.000000 0.525731 0.850651

vt 0.0 0.0
vt 0.0 1.0
vt 1.0 1.0

vn 0.934172 0.356822 0.000000
vn 0.934172 -0.356822 0.000000
vn -0.934172 0.356822 0.000000
vn -0.934172 -0.356822 0.000000
vn 0.000000 0.934172 0.356822
vn 0.000000 0.934172 -0.356822
vn 0.356822 0.000000 -0.934172
vn -0.356822 0.000000 -0.934172
vn 0.000000 -0.934172 -0.356822
vn 0.000000 -0.934172 0.356822
vn 0.356822 0.000000 0.934172
vn -0.356822 0.000000 0.934172
vn 0.577350 0.577350 -0.577350
vn 0.577350 0.577350 0.577350
vn -0.577350 0.577350 -0.577350
vn -0.577350 0.577350 0.577350
vn 0.577350 -0.577350 -0.577350
vn 0.577350 -0.577350 0.577350
vn -0.577350 -0.577350 -0.577350
vn -0.577350 -0.577350 0.577350

f 2/1/1 3/2/1 7/3/1
f 2/1/2 8/2/2 3/3/2
f 4/1/3 5/2/3 6/3/3
f 5/1/4 4/2/4 9/3/4
f 7/1/5 6/2/5 12/3/5
f 6/1/6 7/2/6 11/3/6
f 10/1/7 11/2/7 3/3/7
f 11/1/8 10/2/8 4/3/8
f 8/1/9 9/2/9 10/3/9
f 9/1/10 8/2/10 1/3/10
f 12/1/11 1/2/11 2/3/11
f 1/1/12 12/2/12 5/3/12
f 7/1/13 3/2/13 11/3/13
f 2/1/14 7/2/14 12/3/14
f 4/1/15 6/2/15 11/3/15
f 6/1/16 5/2/16 12/3/16
f 3/1/17 8/2/17 10/3/17
f 8/1/18 2/2/18 1/3/18
f 4/1/19 10/2/19 9/3/19
f 5/1/20 9/2/20 1/3/20
